<svg height="100%" width="100%" id="svg" viewBox="0 0 1440 700" xmlns="http://www.w3.org/2000/svg" class="transition duration-300 ease-in-out delay-150"><path d="M 0,700 C 0,700 0,233 0,233 C 150.3571428571429,218.28571428571428 300.7142857142858,203.57142857142858 419,189 C 537.2857142857142,174.42857142857142 623.4999999999998,160 723,179 C 822.5000000000002,198 935.2857142857144,250.42857142857144 1057,265 C 1178.7142857142856,279.57142857142856 1309.3571428571427,256.2857142857143 1440,233 C 1440,233 1440,700 1440,700 Z" stroke="none" stroke-width="0" fill="#fda92d88" class="transition-all duration-300 ease-in-out delay-150" transform="rotate(-180 720 350)"></path><path d="M 0,700 C 0,700 0,466 0,466 C 119.17857142857142,496.17857142857144 238.35714285714283,526.3571428571429 368,532 C 497.64285714285717,537.6428571428571 637.7500000000001,518.7499999999999 741,524 C 844.2499999999999,529.2500000000001 910.6428571428571,558.6428571428572 1021,553 C 1131.357142857143,547.3571428571428 1285.6785714285716,506.6785714285714 1440,466 C 1440,466 1440,700 1440,700 Z" stroke="none" stroke-width="0" fill="#fda92dff" class="transition-all duration-300 ease-in-out delay-150" transform="rotate(-180 720 350)"></path></svg>