<svg xmlns="http://www.w3.org/2000/svg" viewBox="0 0 32 32">
	<path d="M 12 2 L 12 3 L 12 5 L 8 5 L 8 12 L 5 12 L 5 13 L 5 20 L 8 20 L 8 22 L 5 22 L 5 23 L 5 30 L 13 30 L 13 27 L 19 27 L 19 30 L 27 30 L 27 22 L 24 22 L 24 20 L 27 20 L 27 12 L 24 12 L 24 5 L 20 5 L 20 2 L 12 2 z M 14 4 L 18 4 L 18 8 L 14 8 L 14 4 z M 10 7 L 12 7 L 12 10 L 20 10 L 20 7 L 22 7 L 22 12 L 19 12 L 19 13 L 19 15 L 13 15 L 13 12 L 10 12 L 10 7 z M 7 14 L 11 14 L 11 18 L 7 18 L 7 14 z M 21 14 L 25 14 L 25 18 L 21 18 L 21 14 z M 13 17 L 19 17 L 19 20 L 22 20 L 22 22 L 19 22 L 19 23 L 19 25 L 13 25 L 13 22 L 10 22 L 10 20 L 13 20 L 13 17 z M 7 24 L 11 24 L 11 28 L 7 28 L 7 24 z M 21 24 L 25 24 L 25 28 L 21 28 L 21 24 z" fill="#1890FF">
	</path>
</svg>
