<svg xmlns="http://www.w3.org/2000/svg" viewBox="0 0 50 50"><path d="M 18 2 C 15.250421 2 13 4.2504209 13 7 C 13 9.7495791 15.250421 12 18 12 C 18.405954 12 18.795272 11.938177 19.173828 11.845703 L 20.009766 13.619141 C 16.4239 15.696872 14 19.566908 14 24 C 14 25.144307 14.171954 26.247732 14.472656 27.296875 L 11.197266 28.310547 C 10.305462 26.926437 8.7594627 26 7 26 C 4.2504209 26 2 28.250421 2 31 C 2 33.749579 4.2504209 36 7 36 C 9.7495791 36 12 33.749579 12 31 C 12 30.720101 11.970574 30.447394 11.925781 30.179688 L 15.189453 29.171875 C 16.717054 32.350822 19.597637 34.751317 23.085938 35.626953 L 22.785156 38.009766 C 20.134769 38.123992 18 40.322832 18 43 C 18 45.749579 20.250421 48 23 48 C 25.749579 48 28 45.749579 28 43 C 28 40.871237 26.644896 39.055547 24.759766 38.337891 L 25.060547 35.951172 C 25.371637 35.975473 25.682791 36 26 36 C 29.351463 36 32.382971 34.614408 34.5625 32.390625 L 38.589844 35.699219 C 38.225694 36.39171 38 37.167308 38 38 C 38 40.749579 40.250421 43 43 43 C 45.749579 43 48 40.749579 48 38 C 48 35.250421 45.749579 33 43 33 C 41.804536 33 40.718283 33.443511 39.855469 34.150391 L 35.837891 30.851562 C 37.196458 28.906836 38 26.546346 38 24 C 38 21.051586 36.925635 18.351431 35.154297 16.259766 L 38.25 13.164062 C 39.040698 13.688961 39.985354 14 41 14 C 43.749579 14 46 11.749579 46 9 C 46 6.2504209 43.749579 4 41 4 C 38.250421 4 36 6.2504209 36 9 C 36 10.014646 36.311039 10.959302 36.835938 11.75 L 33.740234 14.845703 C 31.648569 13.074365 28.948414 12 26 12 C 24.528559 12 23.124241 12.280532 21.820312 12.767578 L 20.980469 10.984375 C 22.197522 10.07008 23 8.6301251 23 7 C 23 4.2504209 20.749579 2 18 2 z M 18 4 C 19.668699 4 21 5.3313011 21 7 C 21 8.6686989 19.668699 10 18 10 C 16.331301 10 15 8.6686989 15 7 C 15 5.3313011 16.331301 4 18 4 z M 41 6 C 42.668699 6 44 7.3313011 44 9 C 44 10.668699 42.668699 12 41 12 C 39.331301 12 38 10.668699 38 9 C 38 7.3313011 39.331301 6 41 6 z M 26 14 C 31.534692 14 36 18.465308 36 24 C 36 26.571938 35.027166 28.904505 33.439453 30.673828 C 32.577657 30.007581 31.548864 29.717701 30.707031 29.453125 C 30.159684 29.281101 29.675626 29.121481 29.361328 28.962891 C 29.101758 28.831915 29.046781 28.74769 29 28.675781 L 29 27.615234 C 29.02464 27.577834 29.08984 27.541624 29.115234 27.503906 C 29.261727 27.286379 29.388891 27.049324 29.505859 26.791016 C 29.668994 26.430755 29.752936 26.017018 29.845703 25.611328 C 29.961165 25.529638 30.127518 25.541908 30.238281 25.431641 C 30.587822 25.083649 30.868114 24.569938 30.984375 23.927734 L 30.984375 23.921875 L 30.986328 23.914062 C 31.052898 23.513033 31.026074 23.141912 30.927734 22.808594 C 30.903994 22.728144 30.780822 22.658846 30.751953 22.578125 C 30.902638 21.942292 31.006847 21.286442 31 20.492188 C 30.993855 19.742555 30.842063 18.929926 30.382812 18.207031 C 29.959126 17.540114 29.197399 17.028571 28.273438 16.845703 C 28.036668 16.641124 27.845876 16.356751 27.572266 16.253906 C 27.081202 16.069325 26.554073 16 26 16 C 24.436738 16 23.139806 16.446971 22.259766 17.308594 C 21.379725 18.170216 20.991069 19.380124 21 20.632812 C 21.0044 21.210818 21.09388 21.897507 21.236328 22.595703 C 21.210328 22.670613 21.094276 22.733991 21.072266 22.808594 C 20.978096 23.127787 20.959358 23.485629 21.015625 23.867188 C 21.084985 24.540468 21.381063 25.10047 21.75 25.449219 C 21.872515 25.56503 22.036884 25.548289 22.158203 25.628906 C 22.251093 26.028171 22.333394 26.436029 22.494141 26.791016 C 22.611109 27.049324 22.738273 27.286379 22.884766 27.503906 C 22.910166 27.541626 22.975366 27.577836 23 27.615234 L 23 28.675781 C 22.95322 28.747691 22.898242 28.831915 22.638672 28.962891 C 22.324374 29.121481 21.840316 29.281101 21.292969 29.453125 C 20.451136 29.717701 19.422344 30.00758 18.560547 30.673828 C 16.972834 28.904505 16 26.571938 16 24 C 16 18.465308 20.465308 14 26 14 z M 26 18 C 26.371927 18 26.686455 18.05633 26.869141 18.125 C 27.051827 18.19367 27.064952 18.251085 27.042969 18.207031 L 27.28125 18.685547 L 27.8125 18.751953 C 28.309127 18.813913 28.508311 18.986895 28.695312 19.28125 C 28.882314 19.575605 28.996145 20.037446 29 20.507812 C 29.0075 21.376193 28.90728 22.137517 28.808594 22.414062 L 28.509766 23.248047 L 29.011719 23.5 C 29.012464 23.53046 29.019172 23.539745 29.013672 23.578125 C 28.963161 23.847154 28.877993 23.952916 28.832031 24 L 28.09375 24 L 28.005859 24.900391 C 27.981519 25.144983 27.844407 25.60971 27.683594 25.964844 C 27.603184 26.142411 27.516507 26.298402 27.457031 26.386719 C 27.44085 26.410745 27.433903 26.411036 27.419922 26.421875 L 27 26.632812 L 27 29.199219 L 27.076172 29.384766 C 27.35911 30.063817 27.92172 30.47695 28.458984 30.748047 C 28.996249 31.019144 29.559066 31.187649 30.105469 31.359375 C 30.789566 31.574377 31.404146 31.806051 31.886719 32.078125 C 30.235419 33.282094 28.206249 34 26 34 C 23.793751 34 21.764581 33.282094 20.113281 32.078125 C 20.595854 31.806051 21.210434 31.574377 21.894531 31.359375 C 22.440934 31.187649 23.003751 31.019144 23.541016 30.748047 C 24.07828 30.47695 24.64089 30.063817 24.923828 29.384766 L 25 29.199219 L 25 26.632812 L 24.580078 26.421875 C 24.566097 26.411035 24.559149 26.410744 24.542969 26.386719 C 24.483489 26.298399 24.396813 26.142411 24.316406 25.964844 C 24.155593 25.60971 24.018484 25.144983 23.994141 24.900391 L 23.90625 24 L 23.138672 24 C 23.131931 23.997301 23.127967 24.000744 23.123047 23.996094 C 23.082527 23.957784 23.017736 23.899254 22.996094 23.660156 L 22.992188 23.623047 L 22.986328 23.585938 C 22.979228 23.543167 22.987381 23.5335 22.988281 23.5 L 23.427734 23.279297 L 23.214844 22.490234 C 23.046226 21.864467 23.004706 21.239289 23 20.617188 C 22.993931 19.765875 23.226196 19.163159 23.660156 18.738281 C 24.094116 18.313404 24.804262 18 26 18 z M 7 28 C 8.6686989 28 10 29.331301 10 31 C 10 32.668699 8.6686989 34 7 34 C 5.3313011 34 4 32.668699 4 31 C 4 29.331301 5.3313011 28 7 28 z M 43 35 C 44.668699 35 46 36.331301 46 38 C 46 39.668699 44.668699 41 43 41 C 41.331301 41 40 39.668699 40 38 C 40 36.331301 41.331301 35 43 35 z M 23 40 C 24.668699 40 26 41.331301 26 43 C 26 44.668699 24.668699 46 23 46 C 21.331301 46 20 44.668699 20 43 C 20 41.331301 21.331301 40 23 40 z" fill="#FFC107"></path></svg>