<svg xmlns="http://www.w3.org/2000/svg" viewBox="0 0 50 50"><path d="M 14 2 C 13.449219 2 13 2.445313 13 3 L 13 23 C 13 23.554688 13.449219 24 14 24 L 26 24 L 26 28.1875 C 25.851563 28.246094 25.707031 28.316406 25.566406 28.402344 C 24.914063 28.8125 24.46875 29.453125 24.320313 30.195313 L 22.921875 36.910156 L 18.769531 38.902344 L 12.625 38.902344 C 8.800781 39.195313 8 41.671875 8 43.699219 L 8 49 C 8 49.554688 8.449219 50 9 50 L 22 50 C 22.550781 50 23 49.554688 23 49 L 23 44.585938 L 26.824219 41.578125 C 27.464844 41.066406 28.027344 40.167969 28.175781 39.40625 L 29.878906 31.394531 C 30.027344 30.65625 29.890625 29.902344 29.496094 29.269531 C 29.144531 28.707031 28.617188 28.3125 28 28.113281 L 28 24 L 40 24 C 40.550781 24 41 23.554688 41 23 L 41 3 C 41 2.445313 40.550781 2 40 2 Z M 26 7 L 28 7 L 28 15 L 26 15 Z M 27 17 C 27.550781 17 28 17.449219 28 18 C 28 18.550781 27.550781 19 27 19 C 26.449219 19 26 18.550781 26 18 C 26 17.449219 26.449219 17 27 17 Z M 15.5 27 C 12.460938 27 10 29.460938 10 32.5 C 10 35.539063 12.460938 38 15.5 38 C 18.539063 38 21 35.539063 21 32.5 C 21 29.460938 18.539063 27 15.5 27 Z"></path></svg>