<svg fill="#ff4842" xmlns="http://www.w3.org/2000/svg" viewBox="0 0 50 50">
	<path d="M 13 2 A 1.0001 1.0001 0 0 0 12 3 L 12 4.6660156 L 9.1992188 8.4003906 A 1.0001 1.0001 0 0 0 9 9 C 9 10.850335 10.284199 12.4056 12 12.855469 L 12 25 A 1.0001 1.0001 0 0 0 13 26 L 37 26 A 1.0001 1.0001 0 0 0 38 25 L 38 12.855469 C 39.715801 12.4056 41 10.850335 41 9 A 1.0001 1.0001 0 0 0 40.800781 8.4003906 L 38 4.6660156 L 38 3 A 1.0001 1.0001 0 0 0 37 2 L 13 2 z M 14 4 L 36 4 L 36 5 A 1.0001 1.0001 0 0 0 36.199219 5.5996094 L 38.912109 9.2167969 C 38.794798 10.181279 38.07502 10.945765 37.091797 10.992188 A 1.0001 1.0001 0 0 0 36.908203 10.990234 C 35.836415 10.942223 35 10.085108 35 9 A 1.0001 1.0001 0 0 0 33.001953 8.9296875 A 1.0001 1.0001 0 0 0 33 9 C 33 10.116666 32.116666 11 31 11 C 29.883334 11 29 10.116666 29 9 A 1.0001 1.0001 0 0 0 28.773438 8.3515625 A 1.0001 1.0001 0 0 0 28.707031 8.2792969 A 1.0001 1.0001 0 0 0 28.466797 8.1015625 A 1.0001 1.0001 0 0 0 28.464844 8.1015625 A 1.0001 1.0001 0 0 0 28.375 8.0585938 A 1.0001 1.0001 0 0 0 28.083984 7.9902344 A 1.0001 1.0001 0 0 0 27.984375 7.9863281 A 1.0001 1.0001 0 0 0 27.785156 8.0097656 A 1.0001 1.0001 0 0 0 27.689453 8.0351562 A 1.0001 1.0001 0 0 0 27.597656 8.0703125 A 1.0001 1.0001 0 0 0 27.595703 8.0722656 A 1.0001 1.0001 0 0 0 27.455078 8.1484375 A 1.0001 1.0001 0 0 0 27.421875 8.1699219 A 1.0001 1.0001 0 0 0 27.388672 8.1972656 A 1.0001 1.0001 0 0 0 27.271484 8.3007812 A 1.0001 1.0001 0 0 0 27.150391 8.4589844 A 1.0001 1.0001 0 0 0 27.101562 8.5449219 A 1.0001 1.0001 0 0 0 27.101562 8.546875 A 1.0001 1.0001 0 0 0 27.0625 8.6367188 A 1.0001 1.0001 0 0 0 27.0625 8.6386719 A 1.0001 1.0001 0 0 0 27.033203 8.7324219 A 1.0001 1.0001 0 0 0 27.033203 8.734375 A 1.0001 1.0001 0 0 0 27.011719 8.8300781 A 1.0001 1.0001 0 0 0 27.011719 8.8320312 A 1.0001 1.0001 0 0 0 27.001953 8.9296875 A 1.0001 1.0001 0 0 0 27.001953 8.9316406 A 1.0001 1.0001 0 0 0 27 9 C 27 10.116666 26.116666 11 25 11 C 23.883334 11 23 10.116666 23 9 A 1.0001 1.0001 0 0 0 22.773438 8.3515625 A 1.0001 1.0001 0 0 0 22.707031 8.2792969 A 1.0001 1.0001 0 0 0 22.466797 8.1015625 A 1.0001 1.0001 0 0 0 22.464844 8.1015625 A 1.0001 1.0001 0 0 0 22.375 8.0585938 A 1.0001 1.0001 0 0 0 22.083984 7.9902344 A 1.0001 1.0001 0 0 0 21.984375 7.9863281 A 1.0001 1.0001 0 0 0 21.785156 8.0097656 A 1.0001 1.0001 0 0 0 21.689453 8.0351562 A 1.0001 1.0001 0 0 0 21.597656 8.0703125 A 1.0001 1.0001 0 0 0 21.595703 8.0722656 A 1.0001 1.0001 0 0 0 21.455078 8.1484375 A 1.0001 1.0001 0 0 0 21.421875 8.1699219 A 1.0001 1.0001 0 0 0 21.388672 8.1972656 A 1.0001 1.0001 0 0 0 21.271484 8.3007812 A 1.0001 1.0001 0 0 0 21.150391 8.4589844 A 1.0001 1.0001 0 0 0 21.101562 8.5449219 A 1.0001 1.0001 0 0 0 21.101562 8.546875 A 1.0001 1.0001 0 0 0 21.0625 8.6367188 A 1.0001 1.0001 0 0 0 21.0625 8.6386719 A 1.0001 1.0001 0 0 0 21.033203 8.7324219 A 1.0001 1.0001 0 0 0 21.033203 8.734375 A 1.0001 1.0001 0 0 0 21.011719 8.8300781 A 1.0001 1.0001 0 0 0 21.011719 8.8320312 A 1.0001 1.0001 0 0 0 21.001953 8.9296875 A 1.0001 1.0001 0 0 0 21.001953 8.9316406 A 1.0001 1.0001 0 0 0 21 9 C 21 10.116666 20.116666 11 19 11 C 17.883334 11 17 10.116666 17 9 A 1.0001 1.0001 0 0 0 16.996094 8.9003906 A 1.0001 1.0001 0 0 0 16.773438 8.3535156 A 1.0001 1.0001 0 0 0 16.773438 8.3515625 A 1.0001 1.0001 0 0 0 16.464844 8.1015625 A 1.0001 1.0001 0 0 0 16.375 8.0585938 A 1.0001 1.0001 0 0 0 16.083984 7.9902344 A 1.0001 1.0001 0 0 0 15.884766 7.9921875 A 1.0001 1.0001 0 0 0 15.785156 8.0097656 A 1.0001 1.0001 0 0 0 15.597656 8.0703125 A 1.0001 1.0001 0 0 0 15.595703 8.0722656 A 1.0001 1.0001 0 0 0 15.455078 8.1484375 A 1.0001 1.0001 0 0 0 15.388672 8.1972656 A 1.0001 1.0001 0 0 0 15.271484 8.3007812 A 1.0001 1.0001 0 0 0 15.101562 8.5449219 A 1.0001 1.0001 0 0 0 15.101562 8.546875 A 1.0001 1.0001 0 0 0 15.0625 8.6367188 A 1.0001 1.0001 0 0 0 15.0625 8.6386719 A 1.0001 1.0001 0 0 0 15.033203 8.7324219 A 1.0001 1.0001 0 0 0 15.033203 8.734375 A 1.0001 1.0001 0 0 0 15.011719 8.8300781 A 1.0001 1.0001 0 0 0 15.011719 8.8320312 A 1.0001 1.0001 0 0 0 15.001953 8.9296875 A 1.0001 1.0001 0 0 0 15.001953 8.9316406 A 1.0001 1.0001 0 0 0 15 9 C 15 10.085773 14.162579 10.943194 13.089844 10.990234 A 1.0001 1.0001 0 0 0 12.984375 10.986328 A 1.0001 1.0001 0 0 0 12.904297 10.990234 C 11.923197 10.941852 11.205038 10.179927 11.087891 9.2167969 L 13.800781 5.5996094 A 1.0001 1.0001 0 0 0 14 5 L 14 4 z M 16 11.611328 C 16.735155 12.453795 17.802849 13 19 13 C 20.197151 13 21.264845 12.453795 22 11.611328 C 22.735155 12.453795 23.802849 13 25 13 C 26.197151 13 27.264845 12.453795 28 11.611328 C 28.735155 12.453795 29.802849 13 31 13 C 32.197151 13 33.264845 12.453795 34 11.611328 C 34.522067 12.209603 35.211661 12.648773 36 12.855469 L 36 24 L 14 24 L 14 12.857422 C 14.784373 12.647373 15.47813 12.209377 16 11.611328 z M 20 28 A 1 1 0 0 0 19 29 A 1 1 0 0 0 20 30 A 1 1 0 0 0 21 29 A 1 1 0 0 0 20 28 z M 30 28 A 1 1 0 0 0 29 29 A 1 1 0 0 0 30 30 A 1 1 0 0 0 31 29 A 1 1 0 0 0 30 28 z M 9 30 C 5.1390602 30 2 33.135315 2 36.994141 C 2 41.677125 6.3479914 45.728278 8.2871094 47.701172 A 1.0001 1.0001 0 0 0 9.7128906 47.701172 C 11.688115 45.691172 16 41.67114 16 36.994141 C 16 33.165434 12.868158 30 9 30 z M 41 30 C 37.13906 30 34 33.135315 34 36.994141 C 34 41.676293 38.348225 45.727523 40.287109 47.701172 A 1.0001 1.0001 0 0 0 41.712891 47.701172 C 43.688115 45.691172 48 41.67114 48 36.994141 C 48 33.165434 44.868158 30 41 30 z M 18 31 A 1 1 0 0 0 17 32 A 1 1 0 0 0 18 33 A 1 1 0 0 0 19 32 A 1 1 0 0 0 18 31 z M 32 31 A 1 1 0 0 0 31 32 A 1 1 0 0 0 32 33 A 1 1 0 0 0 33 32 A 1 1 0 0 0 32 31 z M 9 32 C 11.781842 32 14 34.250847 14 36.994141 C 14 40.006879 11.060198 43.327059 9 45.476562 C 6.9603358 43.347015 4 40.000415 4 36.994141 C 4 34.208966 6.2109398 32 9 32 z M 41 32 C 43.781842 32 46 34.250847 46 36.994141 C 46 40.006879 43.060198 43.327059 41 45.476562 C 38.960174 43.346098 36 39.999363 36 36.994141 C 36 34.208966 38.21094 32 41 32 z">
	</path>
</svg>
