<svg fill="#3366FF" xmlns="http://www.w3.org/2000/svg" xmlns:xlink="http://www.w3.org/1999/xlink" aria-hidden="true" role="img" width="1em" height="1em" preserveAspectRatio="xMidYMid meet" viewBox="0 0 16 16">
	<g fill="#3366FF">
		<path d="M10.5 10a.5.5 0 0 0 0 1h2a.5.5 0 0 0 0-1h-2z" fill="currentColor" />
		<path d="M1 5a2 2 0 0 1 2-2h10a2 2 0 0 1 2 2v6a2 2 0 0 1-2 2H3a2 2 0 0 1-2-2V5zm13 0a1 1 0 0 0-1-1H3a1 1 0 0 0-1 1v1h12V5zM2 11a1 1 0 0 0 1 1h10a1 1 0 0 0 1-1V7H2v4z" fill="currentColor" />
	</g>
</svg>
