<svg id="visual" viewBox="0 0 960 540" width="960" height="540" xmlns="http://www.w3.org/2000/svg" xmlns:xlink="http://www.w3.org/1999/xlink" version="1.1"><rect x="0" y="0" width="960" height="540" fill="#FFFFFF"></rect><defs><linearGradient id="grad1_0" x1="43.8%" y1="100%" x2="100%" y2="0%"><stop offset="14.444444444444446%" stop-color="#ffffff" stop-opacity="1"></stop><stop offset="85.55555555555554%" stop-color="#ffffff" stop-opacity="1"></stop></linearGradient></defs><defs><linearGradient id="grad2_0" x1="0%" y1="100%" x2="56.3%" y2="0%"><stop offset="14.444444444444446%" stop-color="#ffffff" stop-opacity="1"></stop><stop offset="85.55555555555554%" stop-color="#ffffff" stop-opacity="1"></stop></linearGradient></defs><g transform="translate(960, 540)"><path d="M-405 0C-401.5 -45.6 -398 -91.2 -370 -120.2C-342 -149.2 -289.4 -161.7 -264.5 -192.2C-239.7 -222.7 -242.4 -271.2 -223.9 -308.2C-205.5 -345.3 -166 -371 -125.2 -385.2C-84.3 -399.4 -42.2 -402.2 0 -405L0 0Z" fill="#fda92d"></path></g><g transform="translate(0, 0)"><path d="M405 0C369.7 33.4 334.4 66.8 323.4 105.1C312.3 143.3 325.4 186.5 317.1 230.4C308.9 274.3 279.2 319 238.1 327.7C196.9 336.3 144.2 308.9 102.6 315.8C61 322.6 30.5 363.8 0 405L0 0Z" fill="#fda92d"></path></g></svg>