<svg id="visual" viewBox="0 0 900 450" width="900" height="450" xmlns="http://www.w3.org/2000/svg" xmlns:xlink="http://www.w3.org/1999/xlink" version="1.1"><rect x="0" y="0" width="900" height="450" fill="#FFFFFF"></rect><path d="M0 333L21.5 321.7C43 310.3 86 287.7 128.8 280.3C171.7 273 214.3 281 257.2 298C300 315 343 341 385.8 339.8C428.7 338.7 471.3 310.3 514.2 308.2C557 306 600 330 642.8 324.7C685.7 319.3 728.3 284.7 771.2 276.7C814 268.7 857 287.3 878.5 296.7L900 306L900 451L878.5 451C857 451 814 451 771.2 451C728.3 451 685.7 451 642.8 451C600 451 557 451 514.2 451C471.3 451 428.7 451 385.8 451C343 451 300 451 257.2 451C214.3 451 171.7 451 128.8 451C86 451 43 451 21.5 451L0 451Z" fill="#fda92d" stroke-linecap="round" stroke-linejoin="miter"></path></svg>